# xmcd
#
# Track frame offsets:
#	150
#	12233
#	27430
#	46493
#	60476
#	75290
#	87788
#	102069
#	117680
#	128194
#
# Disc length: 1900 seconds
#
# Revision: 0
# Processed by: cddbd v1.4PL0 Copyright (c) Steve Scherf et al.
# Submitted via: audiograbber 1.82.01
#
DISCID=75076a0a
DTITLE=Perry Sisters, The - This Kind Of Love
DYEAR=2000
DGENRE=
TTITLE0=We Need A Little Love
TTITLE1=My Prince Will Come
TTITLE2=More Like You
TTITLE3=Follow These Directions
TTITLE4=Take It To Jesus
TTITLE5=That Wonderful Name
TTITLE6=Look At These Tears
TTITLE7=Let Me Fall
TTITLE8=Jesus Gives Love To Me
TTITLE9=This Kind Of Love
EXTD=
EXTT0=
EXTT1=
EXTT2=
EXTT3=
EXTT4=
EXTT5=
EXTT6=
EXTT7=
EXTT8=
EXTT9=
PLAYORDER=
